<svg id="レイヤー_1" data-name="レイヤー 1" xmlns="http://www.w3.org/2000/svg" width="770" height="960" viewBox="0 0 770 960"><defs><style>.cls-1{fill:#ff00b8;}</style></defs><title>oc2018_symbol-p_min</title><polyline points="618.69 417.09 728.15 237.57 509.81 292.39 646.16 0 446.02 152.01 438.73 6.78 326.74 134.18 144.47 45.9 175.58 209.37 0 244.14 164.85 426.16 22.34 533.3 190.56 595.32 43.76 789.19 257.61 773.35 303.77 959.72 466.36 774.31 602.29 954.9 615.81 595.92 770 631.68 618.69 417.09"/><polyline class="cls-1" points="315.13 913.37 274.54 746.57 87.85 763.07 223.35 583.99 67.92 525.8 197.14 428.81 41.06 257.72 202.61 228.05 173.31 83.53 333.35 164.55 421.95 59.68 428.38 193.36 592.02 67.39 471.06 324.86 684.25 269.77 592.2 418 720.41 598.34 593.85 564.37 583.25 894.16 467.13 738.62 315.13 913.37"/></svg>
